<svg width="18" height="18" viewBox="0 0 18 18" fill="none" xmlns="http://www.w3.org/2000/svg">
<g clip-path="url(#clip0_120_7)">
<path d="M8.60523 0.159912C3.9676 0.159912 0.203735 3.9454 0.203735 8.60965C0.203735 13.2739 3.9676 17.0594 8.60523 17.0594C13.2429 17.0594 17.0067 13.2739 17.0067 8.60965C17.0067 3.9454 13.2429 0.159912 8.60523 0.159912ZM6.32842 12.2346L3.31229 9.20113C3.2345 9.12291 3.1728 9.03003 3.13071 8.92782C3.08861 8.82561 3.06695 8.71606 3.06695 8.60543C3.06695 8.4948 3.08861 8.38525 3.13071 8.28303C3.1728 8.18082 3.2345 8.08795 3.31229 8.00972C3.39007 7.93149 3.48241 7.86944 3.58404 7.8271C3.68567 7.78476 3.79459 7.76297 3.90459 7.76297C4.01459 7.76297 4.12352 7.78476 4.22515 7.8271C4.32677 7.86944 4.41912 7.93149 4.4969 8.00972L6.92493 10.4432L12.7052 4.62983C12.8622 4.47183 13.0753 4.38308 13.2975 4.38308C13.5196 4.38308 13.7327 4.47183 13.8898 4.62983C14.0469 4.78782 14.1351 5.0021 14.1351 5.22553C14.1351 5.44897 14.0469 5.66325 13.8898 5.82124L7.51303 12.2346C7.43531 12.3129 7.34299 12.3751 7.24135 12.4175C7.13971 12.4599 7.03076 12.4817 6.92073 12.4817C6.8107 12.4817 6.70174 12.4599 6.60011 12.4175C6.49847 12.3751 6.40615 12.3129 6.32842 12.2346Z" fill="#5D5D72" fill-opacity="0.6"/>
</g>
<defs>
<clipPath id="clip0_120_7">
<rect x="0.203735" y="0.159912" width="16.803" height="16.8995" rx="8.40149" fill="white"/>
</clipPath>
</defs>
</svg>
